<?xml version="1.0" encoding="UTF-8"?>
<svg id="Layer_1" xmlns="http://www.w3.org/2000/svg" version="1.1" viewBox="0 0 1009.38 670.58">
  <!-- Generator: Adobe Illustrator 30.3.0, SVG Export Plug-In . SVG Version: 2.1.3 Build 182)  -->
  <g>
    <path d="M240.46,366.09c70.99,38.4,155.81-16.54,191.17-83.4-32.63,11.17-48.57-14.43-74.98-29.67,9.13.23,15.52,5.85,22.36,10.42l21.41,14.29c11.24,5.11,22.77,5.41,33.43-1.53,11.71-23,13.66-48.13,14.01-75.05,8.57,21.05,5.04,42.53.52,64.24l33.65-37.6c21.91-21.71,57.68-51.29,87.86-48.74,13.35,1.13,21.69,11.51,19.49,24.63-4.2,25.16-29.12,59.33-44.8,83.13l-44.68,67.81c-6.55,9.94-17.13,31.69-12.04,35.18,5.7,3.91,27.15-19.25,35.84-29.34,21.16-24.57,39.5-50.25,59.08-76.16l35.06-46.37c2.25-2.98,6.28-3.71,9.06-2.44,2.95,1.35,4.64,5.3,3.57,8.87l-8.87,29.65-25.21,74.11c-3.56,10.47-7.01,26.3-1.59,29.62,4.8,2.94,17.84-11.29,24.57-19.84,14.1-17.9,25.4-36.72,36.82-56.59l43.27-75.28c14.15-24.62,40.44-57.02,66.52-67.62,10.73-4.37,22.32-6.19,33.22-2.56,9.3,3.09,18.43,9.65,18.65,20.4-6.5-7.97-11.48-13.92-20.69-15.86-43.15-9.09-82.41,52.96-102.68,88.2l-40.24,69.93c-11.84,20.57-36.78,58.38-56.29,65.86-5.86,2.25-13.23,2.24-17.24-2.7-9.04-11.12,1.01-42.61,7.14-60.12l22.61-64.6-52.55,70.65c-13.44,18.06-26.91,34.84-42.74,50.72-11.32,11.35-28.59,27.14-39.92,18.37-10.18-7.88-1.74-29.05,5.85-42.9,12.06-22.03,26.18-41.85,40.11-62.84l39.64-59.74c7.82-11.79,19.36-34.6,12.13-42.53-8.36-9.18-32.23,1.54-46.03,9.86-21.94,13.23-39.61,30.87-56.5,49.99-12.99,14.7-22.84,29.77-32.56,46.72-15.07,26.26-35.84,48.09-61.16,64.37-40.3,25.91-92.78,36.38-135.58,13.08-15.68-10.22-31.42-23.22-34.92-43.24,9.6,15.22,18.58,28.15,34.24,36.62Z"/>
    <path d="M369.41,105.97c-8.23-9.11-20.45-9.88-29.15-1.87-5.46,5.03-8.56,11.76-7.19,19.71,1.04,5.99,6.04,12.57,12.97,15.71,13.91,6.3,24.71,15.95,30.49,30.31,11.1,27.56,39.8,40.5,67.82,29.52-15.99,13.03-38.01,10.69-54.01-.04-9.73-6.52-16.38-16.16-20.93-26.8-5.38-12.55-14.09-21.04-26.51-26.44-8.29-3.6-15.34-10.75-17.12-19.86-2.92-14.9,6.93-28.95,20.83-33.38-4.47-8.46-7.49-16.58-5.99-25.86,3.18-19.64,20.56-34.34,40.72-33.93,12.99.27,23.54-3.06,33.6-11.23,16.88-13.71,39.9-13.52,55.92,1.23,7.2,6.63,15.32,11.1,25.44,11.73,20.48,1.29,35.8,12.05,34.03,32.37-1.33,15.28-15.42,19.32-1.47,44.9,9.81,17.98,5.84,37.3-9.1,50.61-6.14,5.47-15.24,7.18-21.21,11.9-6.22,6.56-9.83,14.78-18.62,19.04-9,4.37-20.15,8.47-29.42,2.85l-27.47-16.63c-36.56-22.14-41.55-60.48-53.63-73.86ZM478.24,50.73c10.03,6.52,11.26,16.32,12.07,26.41,1.1,13.55-2.78,25.13-11.05,37.04,11.89-6.16,21.96-13.06,30.84-22.4,11.78-12.39,18.1-29.84,7.98-41.97-10.89-13.05-31.19-3.29-51.29-21.63-13.14-12-31.89-12.74-46.51-2.06-9.48,6.93-19.6,12.65-31.91,12.63-10.41-.02-19.95,2.12-28.46,8.59-12.9,9.8-16.73,30.95-6.46,43.73,6.54,2.53,17.15,3.4,22.27,12.89.09-14.62,1.25-27.19,9.23-39.15,11.4-15.6,31.12-22.8,50.26-17.93,14.23-5.97,30.27-5.33,43.03,3.87ZM430.82,108.19c4.95.06,8.36-1.89,11.77-3.11,1.48.7,3.28,1.13,5.49.38,11.16-3.74,21.65-8.72,29.17-17.65,8.2-9.74,8.02-24.01-2.42-31.64-8.94-6.53-20.59-8.38-30.69-5.33,12.74,6.69,18.28,19.52,14.28,32.24-9.39,12.28-25.43,15.86-39.12,9.52,2,7.15,5.89,11.9,11.51,15.59ZM416.48,69.7c9.59-8.89,24.25-9.27,35.4-2.93-9.2-21.58-44.59-18.75-59.9.04-8.11,9.96-7,23.1,2.33,31.65,8.07,7.39,18.72,10.75,30.93,10.51-10.67-12.08-19.95-28.9-8.76-39.27ZM450.57,82c1.86-2.05,3.94-6.15,1.71-8.08-8.41-7.3-21.5-7.34-30.09-.85-2.86,2.16-4.15,4.78-4.06,7.79.29,8.82,21.37,13.3,32.43,1.14ZM418.84,168.48l17.18,12.7c-3.14-26.6,10.33-41.49,28.2-57.5,9.91-8.88,17.49-20.67,20.21-33.96-15.22,17.63-34.09,22.91-56.58,26.37-18.43.91-36.81-5.71-45.31-21.96-2.12,25.7,16.95,60.03,36.31,74.35ZM452.4,193.09c18.89-24.51,43.64-22.98,59.7-34.43,14.27-10.17,18.42-27.24,10.84-42.81-3.41-7-5.34-13.85-5.96-21.91-9.25,10.62-19.38,17.6-30.65,24.35-25.31,15.17-48.27,33.49-46.63,65.01l12.7,9.79ZM488.85,176.59c-10.82,2.24-21.12,8.1-30.27,16.94,11.7-.33,23.34-5.68,30.27-16.94Z"/>
    <path d="M352.73,283.02c14.45,11.65,31.99,13.77,49.26,6.85-11.48,11.31-28.72,11.9-43.13,5.56-10.62-4.67-19.04-12.48-26.68-21.1l-15.59-14.39c-9.59-8.85-22.21-10.11-35.97-8.85,11.7-11.61,24.87-18.22,39.44-22.23,32.75-8.96,72.79,6.34,78.93,41.17-7.32-16.96-18.94-29.18-36.87-34.24-20.79-5.88-42.42-2.67-61.55,9.11,24.89,5.11,33.96,23.72,52.15,38.12Z"/>
  </g>
  <g>
    <path d="M212.46,555.83l39.03-95.02c1.4-3.41.73-7.59-1.07-10.17s-5.62-1.83-9.61-4.69l33.46.05c-6.94,2.7-13.11,4.76-16.16,12l-51.29,121.73-34.68-81.55-34.07,79.17c-.66,1.53-4.64-.54-3.98-2.82l-48.47-117.71c-2.48-6.01-7.32-7.97-13.74-10.79l41.76-.25c-3.61,2.75-7.36,2.34-8.85,4.32-2.22,2.95-1.9,6.26-.93,9.78l38.64,95.73,27.49-63.3-15.38-37.61c-2.18-5.33-7.45-6.25-13.09-8.73l42.57-.13c-3.42,2.5-7,1.88-8.94,3.95-2.16,2.31-3.03,6.5-1.58,10.08l38.87,95.95Z"/>
    <path d="M462.6,563.09c-6.92,8.67-16.75,14.81-27.7,14.7-11.43-.12-22.07-5.12-28.73-15.42-11.9-18.42-10.48-43.62,4.22-59.95,13.88-15.41,36.07-18.15,52.81-5.67l.25-37.84c-.11-6.08-3.87-8.91-10.82-10.13l24.83-8.5.14,122.73c0,2.81,1.12,5.9,2.72,6.38l7.65,2.31-23.83,5.71-1.53-14.32ZM463.63,555.44l-.49-43.83c-.12-10.94-11.46-18.07-21.18-18.74-10.15-.7-19.49,4.97-23.88,14.74-6.94,15.46-6.51,33.71,1.28,48.74,4.58,8.84,13.51,13.92,22.61,13.72,9.36-.21,17.56-4.95,21.66-14.64Z"/>
    <path d="M790.65,566.16l-.07-52.06c-.01-9.99-7.34-17.05-17.17-17.07-10.4-.12-19.95,5.07-24.18,14.71l.17,53.71c.02,6.31,4.69,7.68,10.66,9.98l-35.44.31,7.8-3.87c2.07-1.03,2.94-4.27,2.94-7.57v-105.33c.1-6.2-3.8-8.97-10.72-10.18l24.38-8.58.52,66.02c7.62-11.32,18.97-18.18,32.2-17.42s22.58,9.95,22.74,23.01l.65,55.62c.06,5.26,5.45,5.76,9.94,7.89l-32.19.73c-1.27.18-2.41-.14-1.79-2.19,4.14.64,9.58-1.85,9.58-7.72Z"/>
    <path d="M621.55,473.96c-16.43,35.01-6.9,89.25,30.05,98.19,25.4,6.15,45.61-7.43,57.37-33.01.4,9.67-2.64,17.19-4.07,26.36-30.34,18.28-70.85,16.74-93.86-10.09-12.31-14.35-16.59-32.99-14.44-51.71,2.84-24.75,18.12-46.4,41.56-55.28,20.5-7.77,42.21-4.58,61.15,5.35,1.97.47,4.1-2.41,6-3.56l.69,34.68c-4.96-12.54-10.23-23.5-21.52-30.47-22.62-13.98-51.43-4.94-62.92,19.53Z"/>
    <path d="M523.61,577.72c-8.05-.34-14.61-3.83-17.78-9.04-3.9-6.41-4.39-14.4-.69-21.05,4.24-7.64,12.15-11.78,20.36-14.26l28.26-8.55-.08-16.22c-.05-10.4-8.41-16.74-18.46-15.72-8.29.85-14.4,6.44-13.62,15.22.34,3.8-1.85,6.89-4.59,8-3.51,1.43-8.18.64-9.58-3.39-4.22-12.16,14.38-26,38.05-23.39,11.99,1.32,22.09,9.45,22.17,22.17l.35,52.15c.02,2.69,1.39,4.99,3.21,5.84,5.49,2.57,7.68-2.2,12.06-4.73-2.2,7.98-10.69,14.03-19.35,12.47-7.12-1.28-10.18-8.23-10.02-15.64-7.57,9.47-17.31,16.69-30.3,16.14ZM532.07,570c9.64-.22,17.22-5.35,21.68-13.28l-.13-28.8-22.93,8.14c-11.53,4.09-17.04,16.8-10.71,27.85,2.21,3.86,7.23,5.64,12.09,6.09Z"/>
    <path d="M897.25,505.72c-7.93,14.95-7.51,33.53.55,47.94,5.8,10.36,16.88,15.53,28.14,14.67,11.25-.85,19.8-8.15,26.26-18.82-2.35,14.87-15.33,24.87-28.14,27.44-14.94,2.99-30.15-2.84-38.86-15.39-12.96-18.69-10.34-44.49,5.56-60.72,19.69-20.1,54.3-12.04,58.77,4.77,1.3,4.89-1.15,9.15-5.33,10.04-4.42.94-8.95-2.37-9.01-7.69-.08-6.64-3.19-12.18-9.88-14.22-10.69-3.25-22.25,1.07-28.04,11.98Z"/>
    <path d="M296.99,518.89l-.1,45.21c0,2.93,1.03,5.63,2.58,7.46,1.97,2.31,5.51,1.12,8.65,4.13l-36.23-.02,7.83-3.55c2.1-.95,3-4.22,3-7.27l-.02-58.44c-.68-5.73-4.55-7.99-11-8.63l24.94-9.19.78,20.37c5.03-9.33,10.75-16.46,20.05-19.4,5.7-1.8,12.63-.57,15.45,4.66,2.13,3.93,1.12,8.67-2.5,11.11-2.66,1.79-7.5,1.49-10.1-1.97-3.42-4.57-8.76-5.2-13.69-1.64s-9.64,10.32-9.66,17.16Z"/>
    <path d="M348.61,575.66l7.66-3.71c2.11-1.02,2.72-4.46,2.72-7.59l-.04-57.45c-.36-5.76-3.96-8.25-10.66-9.25l24.68-8.79.07,75.46c0,3.1.77,6.54,2.79,7.54l7.8,3.84-35.02-.05Z"/>
    <path d="M827.85,575.27c5.65-1.99,10.45-3.44,10.45-9.72l.08-57.48c0-3.11-.8-6.78-2.87-7.62l-8.09-3.3,24.7-8.32.22,75.51c0,3.16.57,6.62,2.68,7.62l7.93,3.79-35.11-.49Z"/>
    <path d="M361.24,454.75c5.8-2.71,11.22.51,13.19,5.79,1.64,4.42-.4,9.82-5.11,11.99s-10.39.36-12.88-4.66c-2.02-4.08-.66-10.57,4.8-13.13Z"/>
    <path d="M840.52,454.78c5.79-2.62,11.29.45,13.27,5.74,1.66,4.43-.38,9.82-5.16,11.96-4.87,2.18-10.33.49-12.87-4.62-2.01-4.05-.74-10.6,4.76-13.09Z"/>
  </g>
  <g>
    <path d="M174.21,648.14l-83.35.13c-.36,0-.8-.7-.68-1.1l83.35-.13c.36,0,.8.7.68,1.1Z"/>
    <path d="M933.9,648.13l-68.96.14c-.37,0-.8-.7-.67-1.08l68.96-.14c.37,0,.8.7.67,1.08Z"/>
  </g>
  <g>
    <path d="M277.47,658.36l-.06-17.78-7.51,11.55c-.24.37-.3.73-.75.73s-.51-.34-.76-.73l-7.4-11.36-.12,17.4c-.52.36-1.32.32-2.05.18l.02-21.22c.7-.2,1.86-.34,2.42.09l8.02,12.26,7.98-12.34c.91-.22,1.68-.23,2.46-.02v21.14c-.76.21-1.38.25-2.24.11Z"/>
    <path d="M563.62,653.99l3.62,4.25c-.66.25-1.96.49-2.49-.07l-2.41-2.52c-2.77,3.07-7.07,4.14-10.77,2.27-1.78-.9-2.78-2.67-2.96-4.26-.38-3.46,1.8-5.82,5.19-7.26-2.28-1.86-3.18-4.42-1.98-6.87.89-1.81,2.83-2.74,4.62-2.83,1.96-.1,3.89.69,4.95,2.49.66,1.11.69,2.71.21,3.9-.8,1.99-2.45,3.06-4.62,3.82l5.29,5.65c1.12-1.49,1.62-3.17,2.24-4.92.41-.28,1.42-.15,1.8,0-.24,2.34-1.17,4.27-2.69,6.36ZM559.7,640.36c-.59-1.74-3.86-2.43-5.42-.81s-.72,4.46,1.59,6.02c2.82-.99,4.65-2.78,3.83-5.21ZM554.22,656.73c2.66.51,5.09-.6,6.75-2.54l-5.95-6.31c-1.64.55-3.03,1.44-3.8,2.9-.68,1.27-.63,2.67.02,3.92.47.92,1.51,1.76,2.98,2.04Z"/>
    <path d="M307.93,658.7c-3.45.38-6.68-.58-9.04-2.92-4.68-4.63-4.35-12.76.83-16.82,3.63-2.85,8.46-3.04,12.32-.84,3.7,2.1,5.74,6.29,5.31,10.83-.48,4.98-4.17,9.17-9.41,9.75ZM298.25,650.36c1.14,4.41,5.06,6.88,9.28,6.38s7.09-3.87,7.48-8.17c.34-3.69-1.32-7.33-4.43-8.94-3.31-1.71-7.29-1.27-10.06,1.4-2.4,2.32-3.14,5.94-2.27,9.32Z"/>
    <path d="M733.82,658.3l-5.84-8.58-5.76.13-.02,8.45c-.79.14-1.39.17-2.19-.05l.04-21.25,9.95.14c3.37.05,5.73,2.7,5.87,5.81.14,3.19-1.61,6.05-5.33,6.68l5.86,8.62c-.78.27-1.65.22-2.59.05ZM729.53,647.77c2.69-.02,4.18-2.32,4.11-4.58-.08-2.42-1.89-4.16-4.51-4.17l-6.91-.02v8.83s7.32-.06,7.32-.06Z"/>
    <path d="M346.84,658.29l-5.67-8.45-5.98-.1-.03,8.46c-.64.3-1.59.37-2.19-.04l.02-21.14,9.92.08c2.54.02,4.99,1.71,5.8,4,.68,1.93.58,3.89-.45,5.64-.85,1.45-2.64,2.49-4.73,2.85l5.84,8.61c-.61.28-1.77.36-2.54.08ZM342.93,647.74c2.59-.03,4.01-2.39,3.93-4.53-.09-2.35-1.75-4.1-4.31-4.12l-7.39-.06.04,8.8,7.73-.09Z"/>
    <path d="M464.63,658.27c-.86.31-1.56.18-2.27.1v-9.87s-12.44.01-12.44.01l-.06,9.83c-.81.11-1.34.12-2.17,0v-21.23c.81-.2,1.38-.19,2.19-.01l.04,9.39,12.43.02.04-9.42c.68-.14,1.37-.19,2.23,0l.02,21.18Z"/>
    <path d="M378.29,648.47l-10.92.07v7.81s12.67.08,12.67.08c.16.73.16,1.3,0,1.98h-14.77s0-21.41,0-21.41l14.28.03c.48,0,.54,1.56.18,1.93h-12.35s-.01,7.52-.01,7.52l10.92.04.03,1.95Z"/>
    <path d="M703.27,637.18c.64-.29,1.37-.27,2.24-.06l-.13,13.99c-.04,4.85-4.15,7.79-8.79,7.69-4.52-.1-8.32-3.09-8.35-7.78l-.09-13.92c.73-.18,1.39-.21,2.24,0l.07,13.68c.02,3.93,3.32,6.39,7.09,6,3.22-.33,5.63-2.56,5.64-5.94l.07-13.66Z"/>
    <path d="M640.42,637.19c.71-.32,1.46-.26,2.28-.06l-.15,13.87c-.05,4.72-3.82,7.77-8.39,7.82-4.77.05-8.69-3.22-8.69-8.12v-13.58c.85-.22,1.44-.21,2.15-.02l.13,13.91c.03,3.61,2.96,5.89,6.41,5.79,3.29-.1,6.12-2.26,6.15-5.72l.12-13.89Z"/>
    <path d="M674.22,658.23c-.69.34-1.6.19-2.52.12l-6.63-8.94-6.49,8.83c-.84.29-1.78.37-2.59-.04l7.69-10.52-7.69-10.5c.9-.3,2.07-.36,2.62.03l6.45,8.68,6.6-8.78c.72-.28,1.82-.11,2.54.03l-7.73,10.5,7.75,10.6Z"/>
    <path d="M503.14,653.85c3.6,4.24,9.91,3.65,13.16-.28.58.51,1.03.88,1.34,1.57-2.48,2.82-5.92,4.08-9.73,3.55-3.02-.42-6.35-2.28-7.97-5.41-1.72-3.33-1.77-7.22-.21-10.62s4.82-5.32,7.88-5.87c3.93-.7,7.5.71,10,3.42-.44.74-.82,1.15-1.54,1.46-3.02-3.48-8.43-4.13-12.07-.94-3.72,3.26-4.16,9.2-.85,13.11Z"/>
    <path d="M417.36,653.5c3.4,4.5,9.71,4.12,13.23.24.71.38,1.12.8,1.49,1.43-2.32,2.64-5.48,3.88-9.04,3.57-3.04-.26-6.39-1.9-8.16-4.86-2.18-3.63-2.32-8.18-.31-11.89,1.67-3.08,4.86-4.86,7.85-5.26,3.79-.51,7.18.85,9.67,3.52l-1.68,1.43c-3.33-3.73-9.14-4.24-12.57-.36-2.89,3.27-3.21,8.55-.47,12.17Z"/>
    <path d="M765.27,637.13l-8.37,12.55-.04,8.49c-.46.4-1.36.32-2.12.12l-.08-8.6-8.25-12.52c.81-.3,2.11-.39,2.53.1l6.91,10.34,6.98-10.43c.55-.39,1.75-.24,2.44-.05Z"/>
    <path d="M612.43,656.41c.39.43.33,1.21.15,1.96l-13.93.04v-21.29c.73-.19,1.27-.18,2.16-.09v19.39s11.63-.01,11.63-.01Z"/>
    <path d="M483.82,658.19c-.69.35-1.38.31-2.19.15v-21.22c.82-.22,1.52-.19,2.19-.01v21.08Z"/>
  </g>
</svg>