<?xml version="1.0" encoding="UTF-8"?>
<svg id="Layer_1" xmlns="http://www.w3.org/2000/svg" version="1.1" viewBox="0 0 1009.38 670.58">
  <!-- Generator: Adobe Illustrator 30.1.0, SVG Export Plug-In . SVG Version: 2.1.1 Build 136)  -->
  <g>
    <path d="M203.92,413.2c78.62,42.53,172.56-18.32,211.72-92.36-36.14,12.37-53.79-15.98-83.04-32.86,10.11.25,17.19,6.48,24.76,11.54l23.71,15.83c12.45,5.66,25.22,5.99,37.02-1.69,12.97-25.47,15.13-53.3,15.52-83.12,9.49,23.31,5.58,47.1.58,71.14l37.27-41.64c24.26-24.04,63.88-56.8,97.3-53.98,14.78,1.25,24.02,12.75,21.58,27.28-4.65,27.86-32.25,65.71-49.61,92.06l-49.48,75.1c-7.25,11.01-18.97,35.1-13.33,38.96,6.31,4.33,30.07-21.32,39.69-32.49,23.43-27.21,43.75-55.65,65.43-84.35l38.83-51.35c2.49-3.3,6.95-4.11,10.03-2.7,3.27,1.5,5.14,5.87,3.95,9.82l-9.82,32.84-27.92,82.07c-3.94,11.6-7.76,29.13-1.76,32.8,5.32,3.26,19.76-12.5,27.21-21.97,15.62-19.82,28.13-40.67,40.78-62.67l47.92-83.37c15.67-27.27,44.79-63.15,73.67-74.89,11.88-4.84,24.72-6.86,36.79-2.84,10.3,3.42,20.41,10.69,20.65,22.59-7.2-8.83-12.71-15.42-22.91-17.56-47.79-10.07-91.27,58.65-113.72,97.68l-44.56,77.45c-13.11,22.78-40.73,64.65-62.34,72.94-6.49,2.49-14.65,2.48-19.09-2.99-10.01-12.32,1.12-47.19,7.91-66.58l25.04-71.54-58.2,78.24c-14.88,20-29.8,38.58-47.33,56.17-12.54,12.57-31.66,30.06-44.21,20.34-11.27-8.73-1.93-32.17,6.48-47.51,13.36-24.4,28.99-46.35,44.42-69.59l43.9-66.16c8.66-13.06,21.44-38.32,13.43-47.1-9.26-10.17-35.69,1.71-50.98,10.92-24.3,14.65-43.87,34.19-62.57,55.36-14.39,16.28-25.29,32.97-36.06,51.74-16.69,29.08-39.69,53.26-67.73,71.29-44.63,28.69-102.75,40.29-150.15,14.49-17.37-11.32-34.8-25.72-38.67-47.89,10.63,16.86,20.58,31.18,37.92,40.56h-.01Z"/>
    <path d="M346.73,125.13c-9.11-10.09-22.65-10.94-32.28-2.07-6.05,5.57-9.48,13.02-7.96,21.83,1.15,6.63,6.69,13.92,14.36,17.4,15.4,6.98,27.37,17.66,33.77,33.57,12.29,30.52,44.08,44.85,75.11,32.69-17.71,14.43-42.1,11.84-59.81-.04-10.78-7.22-18.14-17.9-23.18-29.68-5.96-13.9-15.6-23.3-29.36-29.28-9.18-3.99-16.99-11.91-18.96-21.99-3.23-16.5,7.67-32.06,23.07-36.97-4.95-9.37-8.29-18.36-6.63-28.64,3.52-21.75,22.77-38.03,45.1-37.58,14.39.3,26.07-3.39,37.21-12.44,18.69-15.18,44.19-14.97,61.93,1.36,7.97,7.34,16.97,12.29,28.17,12.99,22.68,1.43,39.65,13.35,37.69,35.85-1.47,16.92-17.08,21.4-1.63,49.73,10.86,19.91,6.47,41.31-10.08,56.05-6.8,6.06-16.88,7.95-23.49,13.18-6.89,7.27-10.89,16.37-20.62,21.09-9.97,4.84-22.32,9.38-32.58,3.16l-30.42-18.42c-40.49-24.52-46.02-66.98-59.39-81.8v.02ZM467.26,63.95c11.11,7.22,12.47,18.07,13.37,29.25,1.22,15.01-3.08,27.83-12.24,41.02,13.17-6.82,24.32-14.46,34.15-24.81,13.05-13.72,20.05-33.05,8.84-46.48-12.06-14.45-34.54-3.64-56.8-23.95-14.55-13.29-35.32-14.11-51.51-2.28-10.5,7.67-21.71,14.01-35.34,13.99-11.53-.02-22.09,2.35-31.52,9.51-14.29,10.85-18.53,34.28-7.15,48.43,7.24,2.8,18.99,3.77,24.66,14.28.1-16.19,1.38-30.11,10.22-43.36,12.63-17.28,34.46-25.25,55.66-19.86,15.76-6.61,33.52-5.9,47.65,4.29v-.02ZM414.74,127.59c5.48.07,9.26-2.09,13.03-3.44,1.64.78,3.63,1.25,6.08.42,12.36-4.14,23.98-9.66,32.31-19.55,9.08-10.79,8.88-26.59-2.68-35.04-9.9-7.23-22.8-9.28-33.99-5.9,14.11,7.41,20.24,21.62,15.81,35.7-10.4,13.6-28.16,17.56-43.32,10.54,2.21,7.92,6.52,13.18,12.75,17.27h.01ZM398.86,84.96c10.62-9.85,26.86-10.27,39.2-3.24-10.19-23.9-49.38-20.77-66.34.04-8.98,11.03-7.75,25.58,2.58,35.05,8.94,8.18,20.73,11.91,34.25,11.64-11.82-13.38-22.09-32.01-9.7-43.49h0ZM436.61,98.58c2.06-2.27,4.36-6.81,1.89-8.95-9.31-8.08-23.81-8.13-33.32-.94-3.17,2.39-4.6,5.29-4.5,8.63.32,9.77,23.67,14.73,35.92,1.26h.01ZM401.47,194.36l19.03,14.06c-3.48-29.46,11.44-45.95,31.23-63.68,10.98-9.83,19.37-22.89,22.38-37.61-16.86,19.52-37.75,25.37-62.66,29.2-20.41,1.01-40.77-6.32-50.18-24.32-2.35,28.46,18.77,66.48,40.21,82.34h-.01ZM438.64,221.61c20.92-27.14,48.33-25.45,66.12-38.13,15.8-11.26,20.4-30.17,12.01-47.41-3.78-7.75-5.91-15.34-6.6-24.26-10.24,11.76-21.46,19.49-33.94,26.97-28.03,16.8-53.46,37.09-51.64,72l14.06,10.84ZM479.01,203.34c-11.98,2.48-23.39,8.97-33.52,18.76,12.96-.37,25.85-6.29,33.52-18.76Z"/>
    <path d="M328.26,321.21c16,12.9,35.43,15.25,54.55,7.59-12.71,12.53-31.81,13.18-47.77,6.16-11.76-5.17-21.09-13.82-29.55-23.37l-17.27-15.94c-10.62-9.8-24.6-11.2-39.84-9.8,12.96-12.86,27.54-20.18,43.68-24.62,36.27-9.92,80.61,7.02,87.41,45.59-8.11-18.78-20.98-32.32-40.83-37.92-23.02-6.51-46.98-2.96-68.16,10.09,27.56,5.66,37.61,26.27,57.75,42.22h.01Z"/>
  </g>
  <g>
    <path d="M172.91,623.34l43.22-105.23c1.55-3.78.81-8.41-1.19-11.26s-6.22-2.03-10.64-5.19l37.06.06c-7.69,2.99-14.52,5.27-17.9,13.29l-56.8,134.81-38.41-90.31-37.73,87.68c-.73,1.69-5.14-.6-4.41-3.12l-53.68-130.36c-2.75-6.66-8.11-8.83-15.22-11.95l46.25-.28c-4,3.05-8.15,2.59-9.8,4.78-2.46,3.27-2.1,6.93-1.03,10.83l42.79,106.02,30.44-70.1-17.03-41.65c-2.41-5.9-8.25-6.92-14.5-9.67l47.15-.14c-3.79,2.77-7.75,2.08-9.9,4.37-2.39,2.56-3.36,7.2-1.75,11.16l43.05,106.26h.02Z"/>
    <path d="M449.94,631.38c-7.66,9.6-18.55,16.4-30.68,16.28-12.66-.13-24.44-5.67-31.82-17.08-13.18-20.4-11.61-48.31,4.67-66.39,15.37-17.07,39.95-20.1,58.49-6.28l.28-41.91c-.12-6.73-4.29-9.87-11.98-11.22l27.5-9.41.16,135.92c0,3.11,1.24,6.53,3.01,7.07l8.47,2.56-26.39,6.32-1.69-15.86h-.01ZM451.08,622.9l-.54-48.54c-.13-12.12-12.69-20.01-23.46-20.75-11.24-.78-21.58,5.5-26.45,16.32-7.69,17.12-7.21,37.33,1.42,53.98,5.07,9.79,14.96,15.42,25.04,15.19,10.37-.23,19.45-5.48,23.99-16.21h0Z"/>
    <path d="M813.24,634.78l-.08-57.66c-.01-11.06-8.13-18.88-19.02-18.9-11.52-.13-22.09,5.61-26.78,16.29l.19,59.48c.02,6.99,5.19,8.51,11.81,11.05l-39.25.34,8.64-4.29c2.29-1.14,3.26-4.73,3.26-8.38v-116.65c.11-6.87-4.21-9.93-11.87-11.27l27-9.5.58,73.12c8.44-12.54,21.01-20.13,35.66-19.29,14.65.84,25.01,11.02,25.18,25.48l.72,61.6c.07,5.83,6.04,6.38,11.01,8.74l-35.65.81c-1.41.2-2.67-.16-1.98-2.43,4.58.71,10.61-2.05,10.61-8.55h-.02Z"/>
    <path d="M625.97,532.67c-18.2,38.77-7.64,98.84,33.28,108.74,28.13,6.81,50.51-8.23,63.54-36.56.44,10.71-2.92,19.04-4.51,29.19-33.6,20.24-78.46,18.54-103.95-11.17-13.63-15.89-18.37-36.54-15.99-57.27,3.15-27.41,20.07-51.39,46.03-61.22,22.7-8.61,46.75-5.07,67.72,5.92,2.18.52,4.54-2.67,6.64-3.94l.76,38.41c-5.49-13.89-11.33-26.03-23.83-33.74-25.05-15.48-56.96-5.47-69.68,21.63h-.01Z"/>
    <path d="M517.5,647.58c-8.92-.38-16.18-4.24-19.69-10.01-4.32-7.1-4.86-15.95-.76-23.31,4.7-8.46,13.46-13.05,22.55-15.79l31.3-9.47-.09-17.96c-.06-11.52-9.31-18.54-20.44-17.41-9.18.94-15.95,7.13-15.08,16.86.38,4.21-2.05,7.63-5.08,8.86-3.89,1.58-9.06.71-10.61-3.75-4.67-13.47,15.93-28.79,42.14-25.9,13.28,1.46,24.46,10.47,24.55,24.55l.39,57.75c.02,2.98,1.54,5.53,3.56,6.47,6.08,2.85,8.51-2.44,13.36-5.24-2.44,8.84-11.84,15.54-21.43,13.81-7.89-1.42-11.27-9.11-11.1-17.32-8.38,10.49-19.17,18.48-33.56,17.87h.01ZM526.87,639.03c10.68-.24,19.07-5.92,24.01-14.71l-.14-31.9-25.39,9.01c-12.77,4.53-18.87,18.61-11.86,30.84,2.45,4.27,8.01,6.25,13.39,6.74Z"/>
    <path d="M931.3,567.84c-8.78,16.56-8.32,37.13.61,53.09,6.42,11.47,18.69,17.2,31.16,16.25,12.46-.94,21.93-9.03,29.08-20.84-2.6,16.47-16.98,27.54-31.16,30.39-16.55,3.31-33.39-3.15-43.04-17.04-14.35-20.7-11.45-49.27,6.16-67.25,21.81-22.26,60.14-13.33,65.09,5.28,1.44,5.42-1.27,10.13-5.9,11.12-4.9,1.04-9.91-2.62-9.98-8.52-.09-7.35-3.53-13.49-10.94-15.75-11.84-3.6-24.64,1.19-31.05,13.27h-.02Z"/>
    <path d="M266.53,582.43l-.11,50.07c0,3.24,1.14,6.24,2.86,8.26,2.18,2.56,6.1,1.24,9.58,4.57l-40.12-.02,8.67-3.93c2.33-1.05,3.32-4.67,3.32-8.05l-.02-64.72c-.75-6.35-5.04-8.85-12.18-9.56l27.62-10.18.86,22.56c5.57-10.33,11.91-18.23,22.2-21.48,6.31-1.99,13.99-.63,17.11,5.16,2.36,4.35,1.24,9.6-2.77,12.3-2.95,1.98-8.31,1.65-11.19-2.18-3.79-5.06-9.7-5.76-15.16-1.82s-10.68,11.43-10.7,19h.02Z"/>
    <path d="M323.7,645.3l8.48-4.11c2.34-1.13,3.01-4.94,3.01-8.41l-.04-63.62c-.4-6.38-4.39-9.14-11.81-10.24l27.33-9.73.08,83.57c0,3.43.85,7.24,3.09,8.35l8.64,4.25-38.78-.06h0Z"/>
    <path d="M854.44,644.86c6.26-2.2,11.57-3.81,11.57-10.76l.09-63.66c0-3.44-.89-7.51-3.18-8.44l-8.96-3.65,27.35-9.21.24,83.63c0,3.5.63,7.33,2.97,8.44l8.78,4.2-38.88-.54h.01Z"/>
    <path d="M337.68,511.39c6.42-3,12.43.56,14.61,6.41,1.82,4.9-.44,10.88-5.66,13.28s-11.51.4-14.26-5.16c-2.24-4.52-.73-11.71,5.32-14.54h0Z"/>
    <path d="M868.47,511.42c6.41-2.9,12.5.5,14.7,6.36,1.84,4.91-.42,10.88-5.71,13.25-5.39,2.41-11.44.54-14.25-5.12-2.23-4.49-.82-11.74,5.27-14.5h0Z"/>
  </g>
</svg>