<?xml version="1.0" encoding="UTF-8"?>
<svg id="Layer_1" xmlns="http://www.w3.org/2000/svg" version="1.1" viewBox="0 0 925.42 670.58">
  <!-- Generator: Adobe Illustrator 30.1.0, SVG Export Plug-In . SVG Version: 2.1.1 Build 136)  -->
  <path d="M499.36,245.01l-23.39,52.8-20.71,46.77-11.03,30.44c-3.36,9.27-4.69,18.91-4.67,28.82.01,5.24,1.57,10.39,5.24,14,5.13,5.05,12.73,5.51,19.2,2.21,8.36-4.26,14.41-11.2,20.46-18.41l23.23-31.34,44.83-69.65,27.54-43.44-6.65,23.54-12.09,51.44c-3.57,19.91-7.31,50.71,1.04,67.89,1.4,2.88,3.91,5.31,6.34,7.21,5.21,4.07,12.09,3.96,17.95,1.15,5.71-2.73,10.17-6.94,14.14-11.89,7.11-8.86,13.1-17.98,18.3-28.18l31.33-61.5,17.61-35.1,26.21-47.45c10.37-17.13,21.59-33.09,35.35-47.6,12.54-13.22,27.12-25.56,44.9-30.11,9.56-2.45,18.85-1.14,27.59,3.36,1.03.53,2.95-2.07,2.91-3.28-16.92-13.38-40.52-9.69-58.91.73-13.31,7.54-24.72,17.33-34.76,28.99-14.89,17.29-27.43,35.95-38.84,55.83-13.56,23.63-25.67,47.42-37.6,71.83l-13.44,27.5-11.16,21.79-6.69,12.58-14.24,22.26c-2.18,3.4-4.97,6.24-8.75,8.48-4.69-6.59-3.64-27.59-2.14-36.78l4.76-29.24,14.78-66.4c1.71-7.68,3.16-14.89,3.45-22.68.11-2.99-.8-5.78-2.65-7.76-4.89-5.22-13.77-2.32-18.28,3.82l-21.77,29.62-42.26,65.46-37.11,53.24c-5.94,8.52-12.74,15.81-21.18,22.09.04-6.94,1.25-12.79,3.43-18.73l12.47-33.92,19.47-44.39c13.39-30.53,42.1-86.97,35.45-117.91-2.36-10.97-10.86-18.3-22.02-19.04-30.31-2.02-66.72,33.85-88.34,54.6l-19.92,19.12-12.25,10.86c3.56-18.9,1.49-40.59-13.17-52.98-7.79-6.59-17.6-9.68-27.63-10.75-8.03-.86-15.7-.12-23.78.19l-13.63.51c-5.74.21-11.4-1.91-15.61-5.95-3.99-3.84-6.4-8.8-8.34-13.95-5.88-15.58-9.7-24.95-24.61-33.7l-8.91-5.23c-3.48-2.04-5.85-5.76-6.39-9.09-2.38-14.61,20.94-26.68,36.51-23.56,3.4,2.17,6.33,5.68,10.22,7.22l.26,15.2c1.57,13.15,7.24,25.36,17.1,34.24,7.56,6.81,15.94,11.99,25.36,15.56l19.35,7.35c23.25,8.84,42.84,16.11,67.61,6.9,24.65-9.17,38.31-29.86,39.19-56.21.53-15.88-2.3-31.29-7.03-46.33,3.89-7.03,7.08-13.95,9.02-21.58,3.97-15.57-3.97-30.61-18.49-37.05-13.83-6.13-28.27-3.66-47.64-14.82-16.93-9.75-33.67-15.06-51.65-4.68l-10.53,7.48c-15.25,12.87-26.19,10.84-40.47,15.85-17.45,6.12-28.63,22.44-27.75,41.14.32,6.68,2.82,12.67,5.96,18.59-10.64,1.2-20.01,4.83-27.92,11.37-10.97,9.07-15.29,25.54-5.27,36.44,9.94,10.82,22.39,7.76,31.33,29.91l6.38,15.8c4.03,9.98,12.73,16.35,23.35,18.92,16.35,3.96,31.76-2.88,52.38,1.91,12.61,2.93,21.28,12.69,22.99,25.75,1.6,12.25.33,25.33-4.7,36.62-5.88,5.68-13.71,9.25-21.25,12.38-15.71,6.51-33.35,7.15-49.6,2.14-9.33-2.88-17.08-8.11-25.18-13.2l-16.55-10.41c28.85-15,60.38-14.03,86.85,5.64l10.71,7.96c1.84.45,4.37-1.36,5.74-3.07-4.04-7.52-9.79-13.26-16.72-18.22-24.52-17.54-55.77-18.19-83.66-7.48-9.97,3.83-19.12,8.8-27.68,16.03,11.08,4.97,20.77,10.2,30.23,16.83,7.57,5.31,15.05,9.86,23.4,13.76,24.45,11.44,51.01,9.87,75.32-1.67.37-1.05,1.53-.33.81.15-17.45,31.79-48.09,55.88-81.62,68.45-33.97,12.73-73.18,15.4-108.12,6.11l-1.65-.44-1.05-.06c-1.4-.9-3.18-.93-4.73-1.7l-.68-.34-.96-.33-.4-.14-1.38-.63c-13.46-5.38-25.53-12.77-35.99-22.86l-1.2-.71c-.35-.21-1.61.61-1.27,1.06,8.27,10.94,18.69,19.2,30.6,25.97,19.25,10.95,40.8,16.06,62.85,16.98l14.08.11,8.67-.54,16.08-2.02c25.22-4.37,49.4-13.62,70.68-28.18,25.58-17.5,44.54-42.52,55.47-71.46l13.96-11.48,26.16-24.66c19.93-18.78,40.43-41.8,65.79-54.3,7.08-3.49,16.61-6.12,21.62-.82,6.33,6.7,2.24,23-1.26,32.62l-8.69,23.84ZM445.62,148.46c-7.36,25.77-34.2,39.56-60.52,33.31-1.66-5.11-1.03-10.03.13-14.91,3.18-13.43,13.1-25.95,23.79-34.52l12.72-10.2c8.69-6.97,16.27-14.46,23.33-23.46l3.27,22.73c.6,9.25-.2,18.21-2.71,27.04ZM278.45,63.7c3.19-11.29,11.97-19.42,23.42-21.87l13.18-2.82c8.61-1.84,15.89-5.88,23.05-11.04l12.24-8.82c8-4.61,17.31-5.78,25.71-2.05l9.89,4.4c12.18,7.27,25.13,11.39,39.25,13.35,7.75,1.07,15.13,3.53,20.64,9.07,5.5,5.52,6.36,13.3,4.59,20.75-2.38,10.04-7.75,18.19-14.01,26.36-8.48,11.07-18.93,19.64-29.73,28.43-19.26,15.67-35.62,33.28-34.07,59.48l-33.37-12.26c-8.3-3.05-15.48-7.42-22.11-13.25-10.76-10.45-14.42-21.34-14.52-36.35,34.44,15.88,84.36,12.04,109.4-16.99,10.44-12.1,14.01-28.31,4.75-42.03-11.85-17.56-36.88-22.43-57.67-21.23-18.06,1.05-35.57,7.92-47.92,21.24-4.6,4.96-7.51,11.01-8.75,17.78l-5.08,10.49c-1.96,4.04-3.17,8.01-4.25,12.33-12.35-8.61-18.68-20.74-14.65-34.98ZM383.92,62.45c-10.66-7.25-28.85-6.67-39.83.03-4.83,2.95-8.47,8.48-7.22,14.22.96,4.39,5.37,6.55,9.24,7.12,6.66,1,12.87-5.25,11.28-7.73-1.33-2.06-7,1.88-8.89-1.77,1.23-3.94,6.16-5.44,9.93-6.27,6.35-1.4,13.09-.87,18.36,2.67,3.41,2.29,4.01,6.25,1.72,9.49-4,5.65-9.89,9.14-16.64,11.19-13.32,4.04-34.21,4.21-43.62-5.21-10.31-10.33,3.06-25.15,16.08-31.78,15.23-7.76,32.86-9.11,49.51-4.87,7.93,2.02,15.43,5.38,20.75,11.33,10.47,11.72,5.1,26.45-6.36,36.55-11.38,10.03-25.19,15.55-40.32,17.29-18.75,2.15-37.18-.63-53.92-9.52.6-5.13,2.11-9.73,3.85-14.02,9.36,11.44,23.46,13.47,37.58,13.66,7.64.1,14.54-1.4,21.7-3.72,8.69-2.81,16.35-7.6,21.37-15.22,5.33-8.1,3.4-18.04-4.57-23.46Z"/>
  <path d="M188.86,462.77c-2.77-.16-5.49-.7-8.08.39-2.2.92-2.94,3.4-3.41,5.44l-18.81,53.1-14.25,39.3-28.42-77.97-3.15-6.28c-4.49-8.94-13.57-14.17-23.74-14.13l-12.34.06c-1.04,0-1.21,1.47-1.08,2.04.18.78.69,1.41,1.77,1.53,7.29.79,13.36,4.85,16.54,11.45,3.47,7.2,6.25,14.38,8.24,22.18l-18.13,49.92-3.75,10.68-27.95-77.66c-4.16-11.57-14.28-20-26.38-20.01h-13.55c-.95,0-1.11,3.01-.29,3.11,8.02.96,14.61,5.29,18.37,12.74,4.48,8.88,7.38,18.34,10.71,27.85l2.74,7.82,3.62,9.98,1.9,5.48,4.6,12.82,13.23,37.48,4.85,13.58c.95,1.26,4.12,1.73,5.26.37l29.58-81.52,29.59,81.56c1.32,1.14,3.85,1.05,5.09-.22l35.23-97.12,12.01-33.97Z"/>
  <path d="M376.4,594.75c10.07-.15,18.71-4.1,25.25-11.8,1.44,4.91,3.77,8.03,7.83,9.5,2.99.4,5.89.45,8.96.17l-.06-107.51c0-4.7-.11-8.76-1.14-13.09-1.41-5.91-6.24-9.47-12.36-9.4l-19.63.24c-1.36.02-1.31,3.72.05,3.82,4.07.29,8.32.63,11.28,3.74,2.25,2.36,3.19,5.86,3.21,9.17l.2,25.97c-9.5-6.96-22.21-8.29-33.42-5.89-19.11,4.09-27.52,23.96-28.42,42.93-.77,16.43,1.95,35.16,15.08,45.41,6.71,5.23,14.76,6.88,23.15,6.75ZM358,536.11c1.74-15.78,9.07-30.56,25.9-28.97,6.07.57,11.53,3.02,16.19,6.83v60.24c-3.22,5.28-7.85,9.32-13.66,11.27-8.59,2.89-17.43-.12-22.46-7.84-6.98-10.71-7.39-28.73-5.97-41.53Z"/>
  <path d="M757.22,538.93c0-6.47-.21-12.5-1.7-18.62-2.31-9.51-8.7-16.89-18.09-19.82-13.52-4.22-28.63-1.65-39.33,8.79l-.2-27.36-.96-9.68c-.55-5.56-5.71-9.57-11.48-9.55l-21.07.05c-1.29,0-1.35,3.5-.22,3.68l7.1,1.13c4.1.65,7.2,3.94,7.54,8.13l1.07,13.15v103.78c1.01.46,1.81.18,2.49.18l14.88-.02c.37,0,.6-.24.6-.61l.03-72.4c1.85-3.22,4.43-5.25,6.94-7.52,3.9-1.9,7.49-4.02,12.19-4.32,9.68-.61,17.85,4.95,20.42,14.36,1.36,4.99,1.63,10,1.64,15.39l.05,55.07,18.06-.17.03-53.64Z"/>
  <path d="M494.73,499.73c-9.98-1.95-20.2-1.54-30.06,1.01-11.65,3.01-15.77,10.63-15.16,22.69l9-.2c1.55-4.93,3.5-9.79,7.77-12.83,5.83-4.15,13.76-4.86,20.44-2.69,11.82,3.84,13.53,18.95,12.99,31.45l-20.49,1.14c-7.07.39-13.79,2.1-20.18,4.99-7.21,3.27-13.07,9.06-14.49,17.26-.91,5.23-.84,10.64.87,15.18,5.99,15.86,23.5,19.54,38.97,15.79,6.82-1.65,11.97-5.85,16.95-10.59,1.55,5.2,4.3,8.71,8.89,9.75l7.74.13-.04-55.74c-.01-17.44-5.04-33.79-23.2-37.33ZM481.65,585.85c-4.73.41-9.89-1.17-13.24-4.57-6.38-6.47-7.02-16.8-1.96-24.16,4.93-7.19,17.19-9.29,26.26-9.84l7.13-.44.09,26.24c-3.59,6.92-10.22,12.07-18.27,12.76Z"/>
  <path d="M908.98,570.54c-7.58,14.67-26.17,20.52-40.66,12.18-14.04-8.08-15.82-31.46-13.76-47.54,2.26-17.57,12.47-30.7,30.77-28.36,5.79.74,11.35,2.74,15.05,7.31,7.49,9.26,3.15,20.15,10.22,16.23.32-6.07-.07-12.31-1.23-18.49-.86-4.56-4.3-8.16-8.97-9.73-13.46-4.51-28.91-5.6-42.39.04-10.14,4.24-17.03,13.73-20.5,23.94-4.89,14.42-4.31,29.77.83,43.98,7.77,21.45,30.97,28.27,52.38,22.89,10.59-2.66,18.88-9.96,23.14-19.86-1.67-1.27-2.88-2.13-4.88-2.58Z"/>
  <path d="M261.59,517c5.83-3.55,10.85-7.04,7.38-11.35-9.42-11.7-30.33-8.28-40.51,4.47-1.85-4.51-4.54-8.97-9.28-8.99l-23.32-.11c-.66.95-.64,2.73-.24,3.36.49.79,13.84,0,14.46,10l.64,10.33-.06,68.02,18.45-.04-.03-71.69c3.74-6.11,10.06-9.57,17.25-10.06,5.96-.41,11.27,1.64,15.26,6.07Z"/>
  <path d="M311.17,592.73l-.06-72.3-.89-9.42c-1.22-6.47-6.55-10.22-13.12-10.18l-19.8.14c-.81.78-.82,2.61-.44,3.89,2.94.06,5.84.09,8.71,1.05,6.33,2.12,7.33,9.73,7.35,16.94v69.88s18.24,0,18.24,0Z"/>
  <path d="M807.29,510.61c-.69-5.77-6.19-9.81-12.17-9.74l-20.38.24c-1.14.01-1.17,3.58-.09,3.69,4.04.38,8.14.38,11.23,3.09,3.08,2.71,4.14,6.91,4.25,10.9,0,.01,0,.02,0,.03l.04,1.32v59s.01,6.81.01,6.81l.1,6.69c0,.31,1.16.31,1.07-.52l12.94.22c1.34.02,2.47.74,3.84-.49v-74.33s-.83-6.91-.83-6.91Z"/>
  <path d="M198.47,661.51v-30.28c-1.71-.32-3.4-.42-5.17.07l-11.97,26.54-12.8-26.8-5.93.05c.59,1.43.98,2.39.97,3.78l-.05,30.2c.33.82,2.19.78,2.19.22l.3-28.26,14.04,29.15,13.44-29.41.46,25.88c.07,3.7,6.2,4.45,7.76,2.41-1.62-.48-3.25-1.48-3.25-3.56Z"/>
  <path d="M791.58,466.57c-3.77,1.93-6.24,6.89-5.41,12.33.61,3.99,4.33,7.07,7.53,8.04,4.43,1.34,8.71.38,11.84-3.01,3.92-4.25,3.87-10.67.05-15-3.12-3.53-8.61-5.13-14.01-2.36Z"/>
  <path d="M303.28,487.07c5.84-1.66,9.35-7.73,7.62-13.65-1.66-5.7-7.33-9.47-13.82-7.79-6.45,1.67-9.3,8.46-7.48,14.24,1.81,5.75,7.76,8.88,13.67,7.2Z"/>
  <path d="M765.39,660.86l-7.33-11.61c4.18-1.02,6.96-3.03,7.88-6.13.97-3.25.52-6.83-2.22-9.05-2.43-1.97-5.68-2.87-8.84-2.84l-15.11.14c2.76,1.17,4.31,2.02,4.3,4.74l-.09,29.6,4.65-.1.08-15.78c1.2-.4,3.71-.71,4.41.35l8.25,12.54c2.11,3.21,5.86,4.12,9.48,2.52-2.57-1.18-4.13-2.29-5.45-4.37ZM748.67,647.91v-14.84c3.52-.31,7.2-.56,10.09,1.71,3.34,2.62,3.26,8.67-.31,11.34-2.99,2.23-6.49,2.03-9.78,1.8Z"/>
  <path d="M281.43,661.69l-8.08-12.66c5.2-.57,8.69-4.15,8.68-8.83-.01-4.37-3.5-8.49-8.25-8.57l-18.47-.33c2.17,1.34,4.16,1.73,4.17,4.38l.13,29.95,4.49-.03.16-15.69c1.3-.53,3.75-.81,4.44.26l7.82,12.13c2.14,3.32,5.87,4.64,10.01,3.01-2.38-1.17-3.92-1.77-5.1-3.62ZM264.21,647.92v-14.99c3.3-.41,6.63-.43,9.45,1.36,4.01,2.55,4.26,9.29.03,12.02-2.95,1.9-6.24,1.74-9.48,1.61Z"/>
  <path d="M423.49,660.9l.03-29.65c-1.78-.28-3.24-.29-4.82-.07l-.06,15.93h-16.93s-.01-12.26-.01-12.26c0-1.92-.86-3.62-3.02-3.7-2.16-.08-4.3-.62-6.34.41,2.76.52,4.79,1.88,4.79,4.56l-.03,24.16c0,1.81-.12,3.26-1,4.87,2,.82,3.62.64,5.52.47l.07-16.7,16.94-.15-.03,12.77c0,1.49.57,3.52,2.14,3.85,2.31.49,4.39.55,6.78-.02l-3.27-1.83c-.71-.4-.77-1.55-.77-2.65Z"/>
  <path d="M229.29,630.41c-10.36.03-17.69,8.21-17.27,18.74.33,8.16,4.97,15.2,13.51,16.75,11.27,2.05,20.16-5.89,20.66-16.8.48-10.32-6.95-18.72-16.9-18.69ZM238.89,658.03c-1.7,4.29-5.67,6.53-9.55,6.62-4.3.1-7.69-2.18-9.66-6.26-5.41-11.18-1.13-26.06,8.43-26.36,4.17-.13,8.42,1.92,10.28,5.89,2.92,6.25,3.12,13.48.49,20.11Z"/>
  <path d="M545.39,659.43c2.4-2.52,3.43-5.31,3.79-8.49-2.3-1.11-2.04,3.14-5.15,7-2.07-1.57-3.65-3.55-5.46-5.56l-4.99-5.55c5.6-3.68,9.65-8.25,6.64-13.09-2.52-4.06-10.13-4.39-13.74-.89-4.11,3.99-2.44,9.59,1.99,14.53-5.64,3.61-9.27,8.56-6.68,13.88,3.17,6.52,13.87,6.56,20.53.98,2.71,3.39,6.71,4.55,10.12,2.75-3.18-1.31-5.57-3.06-7.06-5.56ZM528.19,638.59c-.44-2.29.43-4.43,2.04-5.66,1.73-1.32,4.19-1.14,5.85.02,1.91,1.34,2.68,3.84,1.9,6.17-.85,2.54-2.74,4.13-5.39,6.02-2.34-1.57-3.89-3.93-4.4-6.55ZM528.17,662.75c-2.3-1.67-3.2-4.79-2.82-7.39.37-2.53,2.18-4.85,4.66-6.38l10.82,12.03c-3.25,3.51-8.69,4.63-12.67,1.74Z"/>
  <path d="M683.91,661.49l-10.04-14.32,11.84-15.87c-1.58-.79-2.53.12-3.29,1.12l-9.74,12.71-7.87-11.28c-2.35-3.37-5.51-3.36-9.94-2.37,2.56,1.1,3.89,2.23,5.19,4.09l9.38,13.46-13.12,16.44c1.88.98,3.13-.06,4.28-1.59l9.99-13.31,9.39,13.41c1.8,2.58,6.22,2.08,8.86,1.17-2.26-1.1-3.63-1.83-4.91-3.67Z"/>
  <path d="M320.52,658.62c-1.6,3.11-4.14,5.04-7.9,5l-9.98-.12-.02-14.52,14.13-.08c.15-.71.2-1.34.08-1.96l-14.25-.04-.22-13.98,10.82.07c3.31.02,5.19,1.86,6.38,5.51,1.11-2.49.46-5.03-1.01-7.28l-24.84.06c2.75,1.36,4.05,2.27,4.04,4.9l-.13,29.46,21.25-.2c1.45-1.62,1.74-3.82,2.37-5.88.71-.69-.05-1.33-.74-.93Z"/>
  <path d="M726.08,631.35l-.32,23.3c-.07,5.4-4.01,9.05-9.3,9.5-5.94.51-10.63-3.4-10.69-9.52l-.18-20.25c-.03-3.64-4.37-4.11-9.14-2.82,2.55.68,4.35,1.67,4.37,4.14l.21,18.98c.05,4.88,2.88,8.83,7.39,10.48,3.38,1.23,6.89,1.25,10.43.53,5.43-1.1,9.09-5.41,9.11-11.06l.08-23.35c0-.44-1.97-.39-1.98.07Z"/>
  <path d="M490.46,657.52c-3.35,6.3-11.59,9-18.03,5.27-7.05-4.08-8.64-16.47-4.36-24.8,1.87-3.65,5.6-5.61,9.05-5.88,4.06-.31,8.11,1.04,10.44,4.3l2.78,5.89c.53-2.35.58-4.43.05-6.36-1.26-4.62-14.25-8.84-23.36-1.89-4.74,3.62-6.95,9.72-6.63,15.98.47,9.23,7.13,15.87,16.4,16.2,10.4.37,15.47-7.09,14.8-8.69-.08-.19-.45.09-1.15-.04Z"/>
  <path d="M641,654.06c-.02,6.35-5.06,10.49-11.27,10.08-5.1-.34-8.81-3.68-8.89-8.9l-.31-20.37c-.03-2.14-.85-3.82-3.2-3.81-1.85,0-3.67-.51-5.86.43,2.85.73,4.53,2.29,4.55,5.24l.11,17.94c.03,5.66,3.89,9.99,9.32,11.08,3.09.62,6.08.67,9.09-.11,5.22-1.35,8.55-5.6,8.56-11.06l.04-23.66h-2.05s-.09,23.14-.09,23.14Z"/>
  <path d="M371.97,664.42c-4.55.53-9.28-1.16-11.92-5.14-5.68-8.57-3.59-24.8,6.85-26.99,4.39-.92,9.06.32,11.82,3.98l2.84,5.85c.68-2.09.89-4.86-.16-6.8-2.71-4.98-15.88-7.7-24.13-.24-3.76,3.4-5.44,8.54-5.47,14.03-.06,10.14,7.62,17.53,17.83,17.08,5.79-.25,12.61-2.78,13.27-9.29-3.46,4.18-6.52,7-10.92,7.51Z"/>
  <path d="M652.42,561.06c-5.19,10.03-12.88,17.62-22.21,22.85-17.94,7.86-38.82,5.42-51.65-9.3-5.09-5.84-8.63-12.39-10.72-19.82-6.97-24.74-4.77-54.89,11.2-75.17,4.04-2.97,7.51-6.62,12.55-8.71,9.71-4.04,20.02-4.48,30.08-1.51,17.46,5.15,24.04,18.7,27.43,35.78,1.68.4,3.28.35,4.65-.47l-1.59-19.06c-.43-5.18-2.25-9.55-6.45-12.99-9.68-7.92-21.39-11.85-33.91-12.98-20.96-1.89-40.58,6.84-52.89,23.35-12.35,16.55-17.17,37.53-14.33,58.43,1.79,13.17,6.33,25.29,15,35.35,7.3,8.46,16.39,14.55,27.33,17.22,16.53,4.03,36.79,2.98,50.46-6.83,9.05-4.67,15.6-13.63,20.25-22.91-1.37-1.7-2.86-2.46-5.2-3.22Z"/>
  <path d="M803.77,633.45l-9.19,14.97-8.79-13.52c-2.63-4.05-5.35-4.56-10.67-3.56,2,.99,3.72,1.83,4.96,3.79l10.23,16.19.56,14.38c1.37.18,3.35.09,4.55-.12l.47-15.12,11.51-19.28c-3.3-.53-2.95,1.19-3.62,2.27Z"/>
  <path d="M604.82,663.38l-17.46.26-.16-29.38c-.02-3.43-3.63-3.72-8.53-2.81,1.17.81,3.77,1.67,3.77,3.48l.04,30.6,22.56-.15c.71-.44.63-2.01-.22-2Z"/>
  <path d="M446.81,664.02c-.65-.53-.99-1.47-.99-2.54l-.14-30.12c-1.99-.52-3.79-.49-5.11-.07l.31,30.23c.01,1.46.56,3.58,2.1,3.94,2.2.52,4.55.24,6.7.12-.86-1.76-2.28-1.09-2.85-1.56Z"/>
</svg>