<?xml version="1.0" encoding="UTF-8"?>
<svg id="Layer_1" xmlns="http://www.w3.org/2000/svg" version="1.1" viewBox="0 0 1009.38 670.58">
  <!-- Generator: Adobe Illustrator 30.1.0, SVG Export Plug-In . SVG Version: 2.1.1 Build 136)  -->
  <path d="M544.61,269.39l-25.47,57.52-22.56,50.94-12.01,33.16c-3.66,10.1-5.11,20.6-5.08,31.4.01,5.71,1.71,11.32,5.7,15.26,5.58,5.51,13.86,6,20.91,2.41,9.11-4.64,15.7-12.2,22.29-20.05l25.3-34.14,48.83-75.87,30-47.32-7.24,25.64-13.17,56.03c-3.89,21.69-7.96,55.23,1.14,73.96,1.52,3.13,4.26,5.78,6.9,7.85,5.67,4.44,13.17,4.31,19.55,1.26,6.22-2.98,11.08-7.56,15.41-12.95,7.75-9.65,14.27-19.58,19.93-30.69l34.13-66.99,19.19-38.23,28.55-51.68c11.3-18.66,23.52-36.05,38.5-51.85,13.65-14.4,29.55-27.84,48.91-32.8,10.42-2.67,20.53-1.25,30.06,3.66,1.12.58,3.21-2.26,3.17-3.58-18.43-14.58-44.14-10.55-64.17.79-14.5,8.21-26.93,18.88-37.86,31.57-16.22,18.84-29.88,39.16-42.31,60.81-14.77,25.74-27.96,51.66-40.96,78.25l-14.64,29.96-12.16,23.74-7.29,13.71-15.51,24.24c-2.37,3.71-5.41,6.79-9.54,9.24-5.11-7.18-3.96-30.05-2.34-40.06l5.18-31.86,16.1-72.33c1.86-8.37,3.44-16.22,3.76-24.71.12-3.25-.87-6.3-2.88-8.45-5.33-5.69-15-2.52-19.91,4.16l-23.71,32.27-46.04,71.3-40.43,58c-6.47,9.28-13.88,17.22-23.07,24.07.04-7.56,1.36-13.93,3.74-20.41l13.59-36.95,21.21-48.36c14.59-33.26,45.86-94.74,38.62-128.44-2.57-11.95-11.83-19.93-23.98-20.74-33.02-2.21-72.68,36.87-96.23,59.47l-21.7,20.83-13.34,11.83c3.88-20.59,1.63-44.21-14.34-57.71-8.49-7.18-19.17-10.55-30.1-11.71-8.75-.93-17.1-.13-25.91.2l-14.85.56c-6.25.23-12.42-2.08-17-6.48-4.34-4.18-6.97-9.58-9.09-15.2-6.41-16.98-10.56-27.18-26.8-36.7l-9.71-5.7c-3.79-2.22-6.37-6.28-6.97-9.9-2.59-15.91,22.81-29.06,39.77-25.67,3.71,2.37,6.9,6.19,11.14,7.87l.28,16.56c1.71,14.32,7.89,27.63,18.63,37.3,8.23,7.42,17.37,13.06,27.62,16.95l21.07,8.01c25.33,9.63,46.67,17.55,73.65,7.51,26.85-9.99,41.73-32.53,42.69-61.24.58-17.3-2.51-34.09-7.65-50.46,4.23-7.65,7.71-15.19,9.83-23.51,4.32-16.96-4.33-33.35-20.14-40.36-15.06-6.68-30.8-3.99-51.9-16.14-18.44-10.62-36.68-16.41-56.27-5.1l-11.47,8.15c-16.61,14.02-28.53,11.81-44.08,17.27-19.01,6.67-31.19,24.45-30.23,44.81.34,7.28,3.07,13.8,6.5,20.26-11.59,1.31-21.8,5.26-30.41,12.38-11.95,9.88-16.65,27.82-5.75,39.7,10.83,11.79,24.39,8.46,34.13,32.58l6.95,17.21c4.39,10.87,13.87,17.81,25.43,20.61,17.81,4.31,34.59-3.14,57.05,2.08,13.74,3.19,23.19,13.83,25.05,28.05,1.75,13.34.36,27.59-5.12,39.89-6.41,6.18-14.94,10.08-23.15,13.49-17.11,7.09-36.33,7.79-54.03,2.33-10.17-3.13-18.61-8.83-27.42-14.38l-18.02-11.34c31.43-16.34,65.77-15.28,94.61,6.14l11.67,8.67c2,.49,4.77-1.48,6.25-3.34-4.4-8.19-10.67-14.45-18.22-19.85-26.71-19.1-60.75-19.81-91.13-8.14-10.86,4.17-20.83,9.59-30.16,17.46,12.07,5.41,22.63,11.11,32.93,18.33,8.24,5.78,16.39,10.74,25.49,14.99,26.64,12.46,55.57,10.75,82.04-1.82.4-1.15,1.67-.36.89.16-19,34.63-52.39,60.87-88.91,74.56-37,13.87-79.72,16.78-117.77,6.65l-1.8-.48-1.14-.07c-1.53-.98-3.46-1.01-5.15-1.85l-.74-.37-1.04-.36-.43-.15-1.5-.69c-14.67-5.86-27.81-13.92-39.21-24.9l-1.31-.78c-.38-.22-1.75.67-1.38,1.15,9.01,11.91,20.36,20.91,33.33,28.29,20.97,11.93,44.44,17.49,68.47,18.49l15.34.12,9.44-.59,17.51-2.2c27.48-4.75,53.81-14.83,77-30.7,27.86-19.07,48.52-46.32,60.42-77.85l15.21-12.51,28.5-26.86c21.71-20.46,44.04-45.53,71.67-59.15,7.71-3.8,18.09-6.67,23.55-.89,6.9,7.3,2.44,25.05-1.38,35.53l-9.46,25.97ZM486.08,164.22c-8.02,28.07-37.25,43.1-65.93,36.29-1.81-5.57-1.12-10.93.14-16.24,3.46-14.63,14.27-28.26,25.92-37.6l13.86-11.11c9.47-7.59,17.73-15.75,25.41-25.55l3.56,24.76c.65,10.08-.22,19.84-2.96,29.46ZM303.98,71.89c3.48-12.3,13.04-21.15,25.52-23.82l14.35-3.07c9.38-2.01,17.31-6.41,25.1-12.02l13.33-9.6c8.71-5.03,18.86-6.29,28.01-2.23l10.78,4.79c13.27,7.92,27.37,12.41,42.76,14.54,8.44,1.17,16.48,3.84,22.49,9.87,5.99,6.01,6.93,14.48,5,22.6-2.59,10.93-8.44,19.81-15.26,28.72-9.24,12.06-20.62,21.4-32.39,30.97-20.98,17.06-38.8,36.25-37.11,64.79l-36.35-13.35c-9.05-3.32-16.87-8.08-24.08-14.43-11.72-11.39-15.71-23.25-15.82-39.6,37.52,17.3,91.89,13.11,119.17-18.51,11.37-13.18,15.26-30.84,5.18-45.78-12.91-19.13-40.18-24.43-62.82-23.12-19.67,1.14-38.75,8.62-52.19,23.14-5.01,5.41-8.18,11.99-9.53,19.37l-5.54,11.42c-2.13,4.4-3.45,8.72-4.63,13.44-13.45-9.38-20.35-22.59-15.96-38.11ZM418.87,70.52c-11.61-7.9-31.43-7.27-43.39.04-5.26,3.21-9.22,9.24-7.86,15.49,1.04,4.78,5.85,7.13,10.06,7.76,7.25,1.09,14.02-5.72,12.29-8.42-1.45-2.25-7.63,2.05-9.68-1.92,1.34-4.29,6.71-5.93,10.81-6.83,6.92-1.52,14.26-.95,20,2.91,3.71,2.5,4.36,6.81,1.87,10.34-4.36,6.16-10.78,9.96-18.12,12.19-14.51,4.4-37.26,4.59-47.51-5.68-11.23-11.25,3.33-27.4,17.51-34.62,16.59-8.45,35.79-9.92,53.93-5.3,8.63,2.2,16.81,5.86,22.6,12.34,11.4,12.76,5.55,28.81-6.93,39.81-12.4,10.93-27.44,16.94-43.92,18.83-20.42,2.35-40.51-.69-58.73-10.37.66-5.59,2.3-10.6,4.2-15.27,10.2,12.47,25.56,14.67,40.94,14.88,8.33.11,15.84-1.52,23.64-4.05,9.47-3.07,17.81-8.27,23.27-16.58,5.81-8.82,3.71-19.65-4.98-25.55Z"/>
  <path d="M206.39,506.6c-3.02-.18-5.98-.76-8.8.42-2.39,1-3.21,3.71-3.71,5.93l-20.49,57.84-15.52,42.81-30.95-84.93-3.43-6.84c-4.89-9.74-14.78-15.44-25.86-15.39l-13.45.06c-1.13,0-1.32,1.6-1.17,2.23.2.85.75,1.54,1.92,1.67,7.94.86,14.56,5.28,18.02,12.47,3.77,7.85,6.81,15.66,8.98,24.16l-19.74,54.37-4.08,11.63-30.45-84.6c-4.54-12.6-15.55-21.79-28.74-21.79h-14.76c-1.04,0-1.2,3.28-.32,3.39,8.73,1.04,15.91,5.76,20.01,13.87,4.88,9.67,8.04,19.98,11.67,30.34l2.98,8.52,3.94,10.87,2.07,5.96,5.01,13.96,14.42,40.83,5.28,14.79c1.04,1.38,4.49,1.88,5.73.41l32.22-88.8,32.23,88.84c1.44,1.25,4.2,1.14,5.55-.24l38.38-105.79,13.08-37Z"/>
  <path d="M410.68,650.36c10.97-.17,20.38-4.47,27.51-12.85,1.57,5.35,4.11,8.74,8.53,10.35,3.25.44,6.42.49,9.76.18l-.06-117.11c0-5.12-.12-9.54-1.24-14.26-1.54-6.44-6.79-10.32-13.47-10.24l-21.38.26c-1.48.02-1.43,4.06.06,4.16,4.43.31,9.06.69,12.29,4.07,2.45,2.57,3.47,6.39,3.5,9.98l.22,28.28c-10.35-7.58-24.19-9.03-36.4-6.42-20.81,4.45-29.98,26.1-30.95,46.76-.84,17.9,2.12,38.3,16.43,49.47,7.3,5.7,16.08,7.5,25.22,7.36ZM390.62,586.49c1.9-17.19,9.88-33.28,28.22-31.56,6.62.62,12.56,3.3,17.63,7.44v65.62c-3.51,5.75-8.55,10.15-14.88,12.28-9.36,3.15-18.99-.13-24.47-8.54-7.6-11.67-8.05-31.29-6.51-45.24Z"/>
  <path d="M825.5,589.56c0-7.05-.23-13.62-1.85-20.29-2.52-10.36-9.47-18.4-19.7-21.59-14.73-4.6-31.19-1.8-42.84,9.58l-.21-29.8-1.05-10.55c-.6-6.06-6.22-10.42-12.5-10.41l-22.95.06c-1.41,0-1.47,3.82-.24,4.01l7.73,1.23c4.46.71,7.84,4.3,8.21,8.85l1.16,14.32-.02,113.05c1.11.5,1.99.2,2.73.2l16.21-.02c.4,0,.66-.26.66-.66l.03-78.87c2.01-3.51,4.83-5.72,7.56-8.19,4.25-2.07,8.16-4.38,13.28-4.7,10.54-.67,19.45,5.39,22.25,15.64,1.48,5.44,1.78,10.89,1.78,16.77l.05,59.99,19.68-.19.03-58.43Z"/>
  <path d="M539.57,546.86c-10.87-2.12-22-1.68-32.74,1.1-12.69,3.28-17.18,11.58-16.51,24.72l9.8-.22c1.68-5.37,3.82-10.66,8.47-13.98,6.35-4.52,14.99-5.3,22.27-2.93,12.88,4.18,14.73,20.65,14.15,34.26l-22.32,1.24c-7.71.43-15.02,2.28-21.98,5.44-7.86,3.56-14.24,9.87-15.79,18.81-.99,5.7-.92,11.59.95,16.53,6.53,17.28,25.6,21.28,42.45,17.2,7.43-1.8,13.04-6.37,18.46-11.53,1.69,5.66,4.68,9.49,9.68,10.62l8.43.15-.04-60.72c-.01-18.99-5.49-36.81-25.27-40.67ZM525.32,640.67c-5.15.44-10.78-1.27-14.43-4.97-6.95-7.05-7.64-18.3-2.14-26.32,5.37-7.83,18.73-10.11,28.61-10.72l7.77-.47.09,28.59c-3.91,7.54-11.13,13.14-19.9,13.9Z"/>
  <path d="M990.82,624c-8.25,15.98-28.51,22.36-44.3,13.27-15.3-8.8-17.24-34.27-14.99-51.79,2.46-19.14,13.58-33.45,33.51-30.9,6.31.81,12.36,2.98,16.39,7.97,8.15,10.09,3.43,21.95,11.14,17.67.35-6.62-.08-13.41-1.34-20.14-.93-4.97-4.68-8.89-9.77-10.6-14.66-4.91-31.49-6.1-46.17.04-11.04,4.62-18.55,14.95-22.33,26.08-5.32,15.7-4.7,32.43.91,47.9,8.46,23.37,33.73,30.79,57.06,24.94,11.53-2.89,20.56-10.85,25.21-21.64-1.82-1.39-3.13-2.32-5.31-2.81Z"/>
  <path d="M285.61,565.67c6.35-3.87,11.82-7.67,8.04-12.37-10.27-12.75-33.03-9.02-44.13,4.87-2.01-4.91-4.94-9.77-10.11-9.8l-25.4-.12c-.72,1.03-.69,2.97-.27,3.66.53.86,15.08,0,15.75,10.89l.7,11.25-.06,74.1,20.1-.05-.03-78.09c4.07-6.65,10.96-10.42,18.79-10.96,6.49-.45,12.28,1.79,16.63,6.61Z"/>
  <path d="M339.61,648.17l-.07-78.76-.97-10.26c-1.33-7.04-7.14-11.13-14.29-11.09l-21.57.15c-.88.85-.9,2.85-.48,4.23,3.2.06,6.36.09,9.49,1.14,6.9,2.31,7.98,10.6,8.01,18.46v76.12s19.87,0,19.87,0Z"/>
  <path d="M880.05,558.71c-.75-6.28-6.75-10.69-13.26-10.61l-22.2.26c-1.24.01-1.28,3.9-.1,4.01,4.4.41,8.87.41,12.23,3.37,3.36,2.95,4.51,7.52,4.63,11.87-.01.01,0,.02,0,.04l.04,1.44v64.27s.01,7.42.01,7.42l.11,7.28c0,.33,1.26.34,1.16-.57l14.1.24c1.46.02,2.69.81,4.18-.53v-80.97s-.91-7.52-.91-7.52Z"/>
  <path d="M862.94,510.74c-4.1,2.1-6.79,7.51-5.89,13.43.66,4.34,4.71,7.7,8.2,8.76,4.83,1.46,9.49.42,12.9-3.28,4.27-4.63,4.22-11.62.05-16.34-3.39-3.84-9.38-5.59-15.26-2.57Z"/>
  <path d="M331.03,533.07c6.37-1.81,10.18-8.42,8.3-14.87-1.81-6.21-7.99-10.32-15.05-8.49-7.02,1.82-10.13,9.21-8.14,15.51,1.98,6.26,8.45,9.68,14.89,7.84Z"/>
  <path d="M711.35,613.67c-5.65,10.92-14.04,19.19-24.19,24.9-19.55,8.57-42.28,5.9-56.26-10.13-5.55-6.36-9.4-13.5-11.68-21.58-7.6-26.95-5.2-59.8,12.2-81.88,4.4-3.24,8.18-7.21,13.67-9.49,10.58-4.4,21.8-4.88,32.77-1.65,19.02,5.61,26.19,20.38,29.88,38.97,1.83.44,3.57.38,5.07-.51l-1.73-20.76c-.47-5.65-2.45-10.41-7.03-14.16-10.54-8.63-23.3-12.91-36.94-14.14-22.83-2.06-44.2,7.45-57.62,25.43-13.45,18.03-18.7,40.88-15.61,63.65,1.95,14.34,6.89,27.55,16.34,38.51,7.95,9.22,17.85,15.85,29.77,18.76,18.01,4.39,40.07,3.25,54.97-7.44,9.86-5.09,17-14.85,22.06-24.96-1.5-1.85-3.12-2.69-5.66-3.51Z"/>
</svg>