<?xml version="1.0" encoding="UTF-8"?>
<svg id="Layer_1" xmlns="http://www.w3.org/2000/svg" version="1.1" viewBox="0 0 1009.38 670.58">
  <!-- Generator: Adobe Illustrator 30.1.0, SVG Export Plug-In . SVG Version: 2.1.1 Build 136)  -->
  <path d="M67.33,593.91c114.32,61.84,250.92-26.64,307.86-134.31-52.55,17.99-78.22-23.24-120.75-47.78,14.7.37,24.99,9.42,36.01,16.78l34.48,23.01c18.1,8.23,36.67,8.71,53.84-2.46,18.86-37.04,22-77.51,22.56-120.86,13.8,33.9,8.12,68.49.84,103.45l54.19-60.55c35.28-34.96,92.89-82.6,141.49-78.49,21.5,1.82,34.93,18.54,31.39,39.66-6.76,40.52-46.9,95.55-72.15,133.87l-71.95,109.2c-10.55,16.01-27.59,51.03-19.39,56.65,9.18,6.3,43.72-31,57.72-47.25,34.08-39.57,63.61-80.92,95.14-122.65l56.46-74.68c3.62-4.8,10.11-5.97,14.59-3.93,4.75,2.17,7.47,8.54,5.75,14.28l-14.28,47.75-40.6,119.35c-5.73,16.86-11.29,42.35-2.56,47.7,7.73,4.73,28.73-18.18,39.57-31.95,22.71-28.83,40.9-59.13,59.3-91.13l69.68-121.23c22.79-39.65,65.13-91.83,107.13-108.9,17.28-7.04,35.94-9.97,53.5-4.12,14.98,4.98,29.68,15.54,30.03,32.85-10.47-12.84-18.49-22.42-33.32-25.54-69.49-14.64-132.71,85.29-165.36,142.04l-64.8,112.62c-19.07,33.13-59.23,94.02-90.65,106.06-9.44,3.62-21.31,3.61-27.76-4.35-14.56-17.91,1.63-68.62,11.5-96.82l36.41-104.03-84.63,113.78c-21.64,29.08-43.34,56.11-68.83,81.68-18.23,18.28-46.04,43.71-64.29,29.58-16.39-12.69-2.8-46.78,9.42-69.09,19.42-35.48,42.16-67.4,64.59-101.2l63.84-96.21c12.59-18.99,31.18-55.72,19.53-68.49-13.46-14.78-51.9,2.48-74.13,15.88-35.33,21.31-63.79,49.71-90.99,80.5-20.92,23.67-36.78,47.94-52.44,75.24-24.27,42.29-57.72,77.44-98.49,103.66-64.9,41.73-149.41,58.59-218.34,21.06-25.25-16.46-50.6-37.39-56.24-69.63,15.46,24.51,29.92,45.33,55.14,58.97h-.02Z"/>
  <path d="M275,175.01c-13.25-14.67-32.93-15.91-46.94-3.01-8.79,8.1-13.79,18.94-11.58,31.74,1.67,9.65,9.73,20.24,20.89,25.3,22.4,10.15,39.79,25.69,49.1,48.81,17.88,44.38,64.09,65.22,109.22,47.54-25.75,20.98-61.21,17.22-86.98-.06-15.67-10.5-26.38-26.02-33.71-43.16-8.66-20.21-22.69-33.88-42.69-42.58-13.35-5.8-24.7-17.31-27.57-31.98-4.7-24,11.16-46.62,33.54-53.76-7.2-13.62-12.06-26.7-9.65-41.65,5.12-31.63,33.11-55.3,65.58-54.64,20.92.43,37.91-4.93,54.11-18.08,27.18-22.08,64.26-21.77,90.05,1.98,11.6,10.68,24.67,17.88,40.97,18.89,32.98,2.08,57.65,19.41,54.8,52.13-2.14,24.61-24.83,31.11-2.37,72.31,15.8,28.96,9.4,60.07-14.65,81.5-9.89,8.81-24.54,11.56-34.16,19.16-10.02,10.56-15.83,23.8-29.99,30.66-14.49,7.04-32.45,13.64-47.38,4.59l-44.24-26.78c-58.88-35.65-66.91-97.4-86.37-118.95v.03ZM450.26,86.05c16.15,10.5,18.13,26.28,19.44,42.53,1.77,21.82-4.48,40.47-17.8,59.65,19.15-9.92,35.36-21.03,49.67-36.07,18.97-19.95,29.15-48.05,12.85-67.59-17.54-21.02-50.23-5.3-82.6-34.83-21.16-19.33-51.36-20.52-74.9-3.32-15.27,11.16-31.56,20.37-51.39,20.34-16.76-.03-32.13,3.41-45.83,13.83-20.77,15.78-26.94,49.84-10.4,70.42,10.53,4.07,27.62,5.48,35.86,20.76.14-23.54,2.01-43.79,14.86-63.05,18.36-25.12,50.12-36.72,80.94-28.87,22.92-9.61,48.75-8.58,69.3,6.23v-.03ZM373.89,178.59c7.97.1,13.46-3.04,18.95-5.01,2.38,1.13,5.28,1.82,8.84.61,17.97-6.02,34.87-14.04,46.98-28.42,13.21-15.69,12.92-38.67-3.9-50.95-14.4-10.52-33.16-13.5-49.42-8.58,20.52,10.77,29.44,31.44,23,51.92-15.12,19.78-40.95,25.54-63,15.33,3.22,11.51,9.49,19.16,18.54,25.11h.02ZM350.8,116.6c15.44-14.32,39.05-14.93,57.01-4.72-14.82-34.75-71.81-30.2-96.46.06-13.06,16.04-11.27,37.2,3.75,50.97,13,11.9,30.15,17.31,49.81,16.93-17.18-19.45-32.13-46.54-14.11-63.24h0ZM405.7,136.41c3-3.3,6.35-9.9,2.75-13.01-13.54-11.76-34.62-11.82-48.46-1.37-4.61,3.48-6.68,7.7-6.54,12.55.47,14.2,34.41,21.42,52.23,1.84h.02ZM354.6,275.68l27.67,20.45c-5.06-42.84,16.64-66.82,45.41-92.6,15.96-14.3,28.17-33.29,32.55-54.69-24.51,28.39-54.9,36.89-91.12,42.47-29.68,1.47-59.28-9.2-72.97-35.36-3.41,41.39,27.3,96.67,58.47,119.73h-.02ZM408.64,315.31c30.42-39.47,70.28-37.01,96.14-55.45,22.98-16.38,29.66-43.87,17.46-68.94-5.49-11.27-8.6-22.3-9.6-35.28-14.9,17.1-31.21,28.34-49.36,39.21-40.76,24.43-77.73,53.93-75.09,104.69l20.45,15.77ZM467.34,288.74c-17.42,3.61-34.01,13.04-48.75,27.28,18.84-.53,37.59-9.15,48.75-27.28Z"/>
  <path d="M248.13,460.14c23.27,18.76,51.52,22.18,79.33,11.03-18.49,18.21-46.25,19.16-69.46,8.95-17.1-7.52-30.66-20.1-42.97-33.98l-25.11-23.17c-15.44-14.25-35.77-16.28-57.93-14.25,18.84-18.7,40.05-29.34,63.51-35.8,52.74-14.43,117.22,10.21,127.11,66.3-11.79-27.31-30.5-46.99-59.38-55.14-33.48-9.47-68.31-4.3-99.12,14.67,40.08,8.23,54.69,38.2,83.98,61.39h.02Z"/>
</svg>