<?xml version="1.0" encoding="UTF-8"?>
<svg id="Layer_1" xmlns="http://www.w3.org/2000/svg" version="1.1" viewBox="0 0 670.58 670.58">
  <!-- Generator: Adobe Illustrator 30.1.0, SVG Export Plug-In . SVG Version: 2.1.1 Build 136)  -->
  <g>
    <path d="M595.99,566.5c-25.37-8.4-50.98-7.91-76.78-1.5-41.95,10.43-69.75,32.35-107.14,45.32-7.14,2.47-14.13,3.81-21.54,2.97-6.12-.68-11.08-6.6-10.1-14.72,3.53-28.97,29.86-43.79,33.86-35.44,2.25,4.7-3.84,8.5-2.73,10.64.75,1.47,2.22,1.36,3.49.61,3.48-2.06,6.21-5.52,5.26-10.17-2.18-10.59-29.98-12.33-47.58,21.08-5.29,10.04-27.01,34.49-32.17,26.03-.93-1.52-.73-4.54.26-6.93,5.99-14.34,13.45-26.89,20.49-40.54.92-1.79,1.38-5.19-.85-5.64-4.66-.95-9.41,2.57-11.51,7.71-3.96,9.7-9.35,17.27-15.96,24.43-4.03,4.36-27.16,30.22-31.02,21.52-.47-1.07-.56-3.62.35-5.23l17.97-31.8c2.08-3.68,3.89-9.2,1.45-13.33-7.79-13.17-30.71,9.93-37.96,17.68,2.23-8.65,7.67-14.19,12.88-20.27,2.66-3.11,11.06-13.43,18.35-24.37-1.06.06-2.13.11-3.21.16-4.77,7.34-10.2,14.07-16.39,20.16,1.55-4.68,4.66-12.15,8.34-19.81,2.62-5.41,5.52-10.92,8.38-15.59,3.71-6.09,7.34-10.78,10.12-12.05.96-.44,2.32,2.73,1.33,5.05-.53,1.23-1.07,2.45-1.63,3.66l3.97-1.81c1.5-4.47,1.63-8.05-.45-9.91-6.82-6.1-17.46,7.67-24.31,18.74-2.46,3.98-4.43,7.61-5.56,9.84l-1.19,2.36-24.82,49.26c-6.07,12.05-25.07,29.96-40.73,28.99-6.54-.41-11.03-7-9.57-15.44,5.03-28.99,31.23-44.05,34.79-34.33,1.29,3.53-2.49,6.25-3.49,9.85,3.68,2.85,8.41-1.93,9.24-5.45,1.33-5.65-2.03-9.29-6.52-10.21-7.2-1.48-14.87.65-21.91,3.98-41.67,19.7-80.19,28.76-123.93,11.62-21.39-8.39-45.59-13.82-66.37-1.51-6.12,3.63-11.37,9.56-12.8,17.82-.82,4.67-.08,9.14,2.48,12.92,1.6,2.36,4.92,6.07,8.74,3.76-3.29-3.15-6.34-5.25-7.29-8.66-3.35-11.98,8.32-20.81,17.9-23.58,28.1-8.11,49.04,6.94,76,13.03,32.98,7.44,63.12-2.67,94.44-16.4-7.82,11.17-16.65,29.9-7.43,41.63,10.77,13.71,36.43.61,47.51-10.89l-6.5,14.95c1.97-.05,8.35,2.4,10.06-.87,10.32-19.67,21.76-37.47,38.17-49.69,2.69-2.01,7.96-5.37,10.43-2.09,5.51,7.31-30.42,40.85-17.23,51.8,11.46,9.53,29.98-13.94,38.88-21.96-1.68,7.21-5.3,14.14-1.49,20.2,8.67,13.76,30.11-10.55,37.16-18.73-2.18,44.72,61.68,11.98,78.29,4.05,18.34-8.75,36.1-16.86,55.17-22.94,46.26-14.73,103.02-12.93,139.02,31.52-.33-21.21-33.46-37.12-46.62-41.48Z"/>
    <path d="M371.07,546.18c-2.53,2.67-7.41,5.58-9.82,2.01-3.15-4.66,1.47-10.38,5.36-11.61,2.37-.74,4.25-.19,5.26.98,1.99,2.31,1.75,5.94-.79,8.62Z"/>
  </g>
  <g>
    <path d="M594.2,234.92c19.19-39.61,9.08-86.72-24.67-115.05-25.53-21.42-56.84-28.84-89.8-31.69l-12.88-17.2c-20.31-21.79-46.18-36.22-75.09-43.71-48.71-12.9-100.81-1.51-132.03,39.78-25.79-1.14-51.34,2.83-74.13,14.99-25.2,13.44-41.94,37.85-45.54,66-2.15,18.6.64,36.17,8.92,52.75,7.39,14.83,16.6,27.97,28.09,39.87,9.77,10.11,19.32,19.29,30.61,27.72l52.36,39.04c15.91,11.86,30.04,24.65,42.93,39.61,10.2,11.82,18.1,24.58,22.5,39.47,2.6,8.78.84,17.03-5.3,23.82-7.81,8.62-18.75,14.32-30.79,13.58-11.56-.7-20.35-8.16-25.48-18.14-7.98-15.56-8.36-32.23-13.89-37.07-6.11-5.33-16.63,3.73-19.92,13.29l-9.62,27.96c-7.25,21.06-12.77,41.18-27.59,59.6-9.65,11.99-22.1,21.76-37.18,25.53-21.8,5.44-42.52-5.83-50.99-26.17-3.42-8.21-4.79-16.7-3.84-26.16,3.9,3.65,7.48,6.48,12.37,7.92,22.11,6.52,45.14-4.9,54.62-25.88,6.02-13.31,8.75-27.02,9.21-41.75.78-25.34-9.55-49.53-31.36-62.24,5.49-8.61,10.5-16.64,13.32-26.1-9.08,6.38-14.02,14.76-21.3,22.05-19.58-6.36-40.31-.24-53.23,15.69-8.2,10.1-12.81,21.62-15.69,34.37-1.48,6.57-2.94,13.06-1.61,19.61,3.08-1.63,4.48-4.69,6.32-7.54,9.76-15.1,20.75-29.38,40.54-29.87-17.2,26.67-30.37,54.76-20.25,85.89-3.82,28.15-.03,61.39,20.24,81.15,18.26,17.82,45.76,18.61,66.49,5.55,24.01-15.14,36.69-43.53,45.08-70.35l10.77-34.42c1.82-5.82,4.72-10.84,7.6-9.71,4.45,1.75,6.68,41.97,33.28,51.61,9.94,3.6,20.44,2.2,30-2.47,21.8-10.64,29.93-35.28,33.27-58.82,3.69-26.07-3.9-51.48-20.75-71.8-14.27-17.23-30.3-32.14-48.09-45.87-11.05-8.54-19.79-17.87-26.26-30.45-4.53-8.8-8.85-17.68-11-28.22,11.5,12.21,23.94,21.26,39.19,27.01,39.84,15.01,86.53,10.31,125.85-5.26,34.84-13.8,67.62-34.41,84.5-68.53,12.5-25.26,12.76-53.83-.62-79.38,21.56,2.38,41.35,8.33,58.87,18.83,31.3,18.74,46.3,53.58,37.85,88.98-5.66,23.71-18.58,44.02-37.39,59.65-14.83,12.32-30.62,21.76-48.14,30.04l-63.89,30.16c-29.02,13.7-55.53,36.12-66.93,66.42-5.47,14.54-7.43,29.39-4.4,44.56.32,1.57.99,2.82,2.22,3.86.99-25.9,13.37-49.6,34.34-65.39,14.35-10.8,29.61-18.74,46.15-25.65l39.23-16.39c39.31-16.41,77.41-37.74,100.95-73.78,26,28.16,30.26,61.91,11.17,94.37-6.51,11.05-14.56,20.15-22.96,29.44-.29.32-.57.63-.86.95-.42.68.37,1.96,1.16,1.7.01-.01.03-.02.04-.02,19.03-10.86,35.34-26.51,46.64-45.34,21.19-37.24,7.91-75.23-23.21-102.4ZM124.18,350.73c17.86,7.52,31.21,21.18,37.67,38.82,1.49,4.06.74,7.63-2.35,10.88-8.48,8.94-20.5,14.99-33.71,15.35-10.95.31-18.8-7.49-19.68-17.48-.19-16.77,9.13-32.81,18.07-47.57ZM235.81,252.95l-17.62-13.05c-22.1-17.1-42.8-38.56-52.68-64.84-8.7-23.17-4.25-47.74,11.93-66.29,6.6-7.56,14.43-13.06,23.52-17.84,31.35-16.5,74.29-14.64,108.71-6.03-18.12,2.74-34.33,6.56-49.56,15.05-17.18,9.37-28.94,25.16-31.31,44.59-14.68,24.95-13.53,57.91-3.07,84.39,2.46,8.33,6.18,15.22,10.08,24.02ZM463.31,180.68c9.95-34.44-11.95-63.32-44.09-74.61-30.78-10.81-65.18-10.17-95.48,1.75-16.02,6.31-32.06,22.36-27.78,37.67,4.98,17.85,27.48,24.19,45.43,20.62-13.77-1.85-31.83-9.1-32.68-22.49-.88-13.69,18.86-24.09,33.04-27.69,30.47-7.73,74.16-2.47,94.41,22.4,18.52,22.74,6.88,50.78-14.7,67.44-10.88,8.4-22.61,14.58-35.82,19.02-40.66,13.69-95.37,15.2-132.39-7.28-20.27-12.3-29.84-35.77-23.07-59.33,2.43,5.88,4.01,10.85,7.68,15.55,10.48,13.42,24.27,22.77,40.49,28.47,25.77,9.05,53.18,11.01,79.79,4.71,10.84-2.57,20.71-6.83,28.98-13.93,13.7-11.75,18.39-32.04,6.1-44.94-9.97-10.45-26.21-15.53-40.65-10.42,11.32,1.96,21.61,4.43,28.69,12.62,6.32,6.88,7.3,15.95,2.17,23.77-4.2,6.39-10.28,10.9-17.92,13.82-26.9,10.29-57.69,8.06-83.34-5.41-7.22-3.79-13.12-9.08-18.19-15.06-11.77-13.88-11.43-32.66-.5-47.08,6.53-8.62,15.54-14.66,25.51-19.31,11.41-5.34,23.31-7.96,35.48-11.25l14.28-3.85c-5.78-3.97-12.12-5.63-18.62-7.85-15.07-5.12-29.9-7.52-46.84-9.82,49.28-33.73,109.96-26.22,157.54,5.66,35.95,24.08,56.82,67.77,32.48,106.82Z"/>
    <path d="M321.95,516.13c-3,6.58-6.37,12.77-10.15,18.58-2.67.14-5.37.25-8.05.35-3.19.13-6.35.22-9.34.29-11.08.25-20,.08-20.92-.83-.32-.31-.3-1.25-.11-1.65.18-.4,1.29-.84,1.95-1.06l25.83-8.66,10.97-3.68,9.44-3.17.38-.17Z"/>
    <path d="M571.38,396.62c-1.34,43.81-23.14,87.56-59.01,112.91-12.87,9.1-27.3,14.72-42.96,15.63-25.57,1.5-48.39-11.73-58.59-35.96-18.18,27.89-41.67,39.91-74.17,43.69-4.67.59-12.77,1.19-21.64,1.66,4.72-7.07,8.97-14.41,10.91-20.23l23.47-10.68c20.33-10.92,37.67-25.6,50.11-45.13-1.83-8.48-1.87-16.57-1.63-25.17.29-10.61.86-21.24,6-31.36,1.29,15.62.27,29.9,3.58,45.52,8.59-16.05,14.15-32.7,20.17-49.61,5.73-16.09,13.3-39,26.7-46.57,3.72-2.1,8.09-2.65,12.18-.93,8.46,3.55,8.93,15.8,8.38,26.35l-.82,15.66-6.77-5.46c-9.11-7.35-17.48,6.71-21.61,18.54l-13.66,39.15c-3.72,10.69-7.58,20.68-13.05,30.58,12.92,15.69,33.31,21.96,52.81,17.34,32.31-7.65,61.75-35.71,77.47-64.37,6.05-11.03,13.58-31.19,5.47-34.37-3.97-1.55-10.81,9.61-26.23,10.34-13.79.66-23.92-8.94-24.14-22.98-.21-12.73,2.23-25.75,6.98-37.49,4.49-11.1,15.39-16.18,26.62-12.85,8.92,2.65,15.91,8.68,20.93,16.48,2.91,4.52,5.61,8.91,7.27,14.17,1.92,6.1,3.4,12.26,4.28,18.55.13.87.25,1.75.34,2.63.54,4.57.75,9.21.61,13.96Z"/>
    <path d="M358.03,363.9c-2.39-8.8,1.12-17.07,4.03-24.86,8.78-21.15,29.53-41.91,48.51-54.47l29.68-19.63c23.98-15.86,47.76-32.8,58.05-60.58,4.05-10.92,4.63-22.3,1.41-33.35,2.28-.25,3.8.96,5.5,2.52,19.96,18.32,21.59,48.33,4.5,69.48-7.02,8.69-15.19,16.03-25.33,21.12l-42.32,21.22-18.01,8.92c-14.13,7-27,15.29-38.52,26.17-12.63,11.94-20.47,26.45-27.48,43.45Z"/>
    <path d="M119.59,271.59l-13.85,24.1-31.56-18.56,16.24-29.4,28.24,17.3c4.33-8.89,8.16-16.44,12.74-24.46l27.14,16.89c1.26.74,2.7,1.55,3.01,2.58.52,1.73-.63,3.03-1.46,4.51-4.46,7.96-7.73,16.03-13.48,23.7l-27.02-16.68Z"/>
    <path d="M290.77,515.19l-31.44-18.93,15.87-28.87,27.71,16.6,12.86-24.05c10.92,5.56,20.86,11.66,30.66,18.93l-15.45,28.13-26.89-16.65c-3.97,8.93-8.56,16.62-13.31,24.84Z"/>
  </g>
</svg>